<svg xmlns="http://www.w3.org/2000/svg" viewBox="0 0 900 560" role="img" aria-labelledby="title desc">
  <title id="title">Generic device illustration</title>
  <desc id="desc">A simple laptop-style device placeholder.</desc>
  <defs>
    <linearGradient id="screen" x1="0" x2="1" y1="0" y2="1">
      <stop offset="0" stop-color="#f9f9f9"/>
      <stop offset="1" stop-color="#dfe8e2"/>
    </linearGradient>
    <linearGradient id="base" x1="0" x2="1" y1="0" y2="1">
      <stop offset="0" stop-color="#1c6a3b"/>
      <stop offset="1" stop-color="#125f31"/>
    </linearGradient>
    <filter id="shadow" x="-20%" y="-20%" width="140%" height="140%">
      <feDropShadow dx="0" dy="18" stdDeviation="18" flood-color="#000" flood-opacity="0.18"/>
    </filter>
  </defs>
  <rect width="900" height="560" rx="40" fill="#f4f7f4"/>
  <g filter="url(#shadow)">
    <rect x="170" y="82" width="560" height="340" rx="24" fill="#26332b"/>
    <rect x="200" y="112" width="500" height="280" rx="10" fill="url(#screen)"/>
    <path d="M110 420h680l54 70c13 17 1 42-20 42H76c-21 0-33-25-20-42l54-70Z" fill="url(#base)"/>
    <path d="M346 446h208l18 24H328l18-24Z" fill="#f6d724" opacity="0.9"/>
  </g>
  <circle cx="450" cy="253" r="58" fill="#125f31" opacity="0.1"/>
  <path d="M420 253h60M450 223v60" stroke="#125f31" stroke-width="16" stroke-linecap="round" opacity="0.65"/>
</svg>
