<svg width="320" height="160" viewBox="0 0 320 160" fill="none" xmlns="http://www.w3.org/2000/svg">
<g id="drive-star" clip-path="url(#clip0_2_31467)">
<rect width="320" height="160" fill="white"/>
<rect id="border/bg" x="0.5" y="0.5" width="319" height="159" fill="white" stroke="#BDC1C6"/>
<path id="Stroke 205 Copy 2" d="M106 118.585H302.927" stroke="#9D9FA1" stroke-linecap="round" stroke-linejoin="round"/>
<g id="Nav highlight">
<rect id="highlight" x="4" y="109.5" width="73" height="24" rx="12" fill="#C2E7FF"/>
</g>
<g id="screen">
<rect id="Rectangle" x="77" y="86" width="230" height="24" fill="#F1F3F4"/>
<path id="Stroke 205 Copy 3" d="M14 87.5852H61.7399" stroke="#BDC1C6" stroke-linecap="round" stroke-linejoin="round"/>
<path id="Stroke 205 Copy 2_2" d="M14 104.585H61.7399" stroke="#BDC1C6" stroke-linecap="round" stroke-linejoin="round"/>
<path id="Stroke 205 Copy 3_2" d="M106 78.5852H301.933" stroke="#BDC1C6" stroke-linecap="round" stroke-linejoin="round"/>
<path id="Stroke 205 Copy 2_3" d="M106 98.5852H301.933" stroke="#4285F4" stroke-linecap="round" stroke-linejoin="round"/>
<path id="Stroke 205 Copy 2_4" d="M36.1887 121.5L61.7399 121.585" stroke="#334043" stroke-linecap="round" stroke-linejoin="round"/>
<path id="Stroke 205 Copy 2_5" d="M106 138.585H302.927" stroke="#BDC1C6" stroke-linecap="round" stroke-linejoin="round"/>
<path id="Stroke 205 Copy 2_6" d="M106 118.585H302.927" stroke="#BDC1C6" stroke-linecap="round" stroke-linejoin="round"/>
<path id="Stroke 205 Copy" d="M14 138.585H61.7399" stroke="#BDC1C6" stroke-linecap="round" stroke-linejoin="round"/>
</g>
<g id="grade_BASELINE_P900">
<path id="Shape" fill-rule="evenodd" clip-rule="evenodd" d="M19.1618 123.487L17.1836 130L22.5 125.995L27.8164 130L25.8382 123.487L31 119.788H24.5709L22.5 113L20.4291 119.788H14L19.1618 123.487ZM22.5 124.645L19.62 127L20.67 123.097L18 121H21.36L22.5 117L23.64 121H27L24.33 123.097L25.38 127L22.5 124.645Z" fill="#1F1F1F"/>
</g>
<g id="nav icons">
<g id="Icons/info-dark-grey">
<path id="Line" d="M294 55.6656V60.114" stroke="#BDC1C6" stroke-linecap="square"/>
<path id="Line_2" d="M294 52.2573V51.8579" stroke="#BDC1C6" stroke-linecap="square"/>
<circle id="Oval" cx="294" cy="55.9474" r="9.12843" stroke="#BDC1C6"/>
</g>
<g id="calendar_view_month_BASELINE_P900 (1)">
<g id="Shape_2">
<path fill-rule="evenodd" clip-rule="evenodd" d="M258.81 64.1724C258.287 64.1724 257.855 64.0014 257.513 63.6595C257.171 63.3175 257 62.8851 257 62.3621V49.8104C257 49.2874 257.171 48.8549 257.513 48.5129C257.855 48.171 258.287 48 258.81 48H276.19C276.713 48 277.145 48.171 277.487 48.5129C277.829 48.8549 278 49.2874 278 49.8104V62.3621C278 62.8851 277.829 63.3175 277.487 63.6595C277.145 64.0014 276.713 64.1724 276.19 64.1724H258.81ZM257.845 55.6638H263.728V48.8448H258.81C258.529 48.8448 258.297 48.9354 258.116 49.1164C257.935 49.2974 257.845 49.5287 257.845 49.8104V55.6638ZM270.427 55.6638H264.573V48.8448H270.427V55.6638ZM271.272 55.6638H277.155V49.8104C277.155 49.5287 277.065 49.2974 276.884 49.1164C276.703 48.9354 276.471 48.8448 276.19 48.8448H271.272V55.6638ZM263.728 56.5086V63.3276H258.81C258.529 63.3276 258.297 63.2371 258.116 63.056C257.935 62.875 257.845 62.6437 257.845 62.3621V56.5086H263.728ZM264.573 63.3276H270.427V56.5086H264.573V63.3276ZM276.19 63.3276H271.272V56.5086H277.155V62.3621C277.155 62.6437 277.065 62.875 276.884 63.056C276.703 63.2371 276.471 63.3276 276.19 63.3276Z" fill="#BDC1C6"/>
<path d="M257.513 63.6595L257.425 63.7479H257.425L257.513 63.6595ZM257.513 48.5129L257.425 48.4246V48.4246L257.513 48.5129ZM277.487 48.5129L277.575 48.4246V48.4246L277.487 48.5129ZM277.487 63.6595L277.575 63.7479V63.7479L277.487 63.6595ZM263.728 55.6638V55.7888H263.853V55.6638H263.728ZM257.845 55.6638H257.72V55.7888H257.845V55.6638ZM263.728 48.8448H263.853V48.7198H263.728V48.8448ZM258.116 49.1164L258.028 49.028V49.028L258.116 49.1164ZM264.573 55.6638H264.448V55.7888H264.573V55.6638ZM270.427 55.6638V55.7888H270.552V55.6638H270.427ZM264.573 48.8448V48.7198H264.448V48.8448H264.573ZM270.427 48.8448H270.552V48.7198H270.427V48.8448ZM277.155 55.6638V55.7888H277.28V55.6638H277.155ZM271.272 55.6638H271.147V55.7888H271.272V55.6638ZM276.884 49.1164L276.972 49.028V49.028L276.884 49.1164ZM271.272 48.8448V48.7198H271.147V48.8448H271.272ZM263.728 63.3276V63.4526H263.853V63.3276H263.728ZM263.728 56.5086H263.853V56.3836H263.728V56.5086ZM258.116 63.056L258.028 63.1444V63.1444L258.116 63.056ZM257.845 56.5086V56.3836H257.72V56.5086H257.845ZM270.427 63.3276V63.4526H270.552V63.3276H270.427ZM264.573 63.3276H264.448V63.4526H264.573V63.3276ZM270.427 56.5086H270.552V56.3836H270.427V56.5086ZM264.573 56.5086V56.3836H264.448V56.5086H264.573ZM271.272 63.3276H271.147V63.4526H271.272V63.3276ZM271.272 56.5086V56.3836H271.147V56.5086H271.272ZM277.155 56.5086H277.28V56.3836H277.155V56.5086ZM257.513 63.6595L257.425 63.7479C257.792 64.1153 258.257 64.2974 258.81 64.2974V64.1724V64.0474C258.318 64.0474 257.918 63.8876 257.601 63.5711L257.513 63.6595ZM257 62.3621H256.875C256.875 62.9152 257.057 63.3805 257.425 63.7479L257.513 63.6595L257.601 63.5711C257.285 63.2546 257.125 62.8549 257.125 62.3621H257ZM257 49.8104H256.875V62.3621H257H257.125V49.8104H257ZM257.513 48.5129L257.425 48.4246C257.057 48.792 256.875 49.2572 256.875 49.8104H257H257.125C257.125 49.3175 257.285 48.9178 257.601 48.6013L257.513 48.5129ZM258.81 48V47.875C258.257 47.875 257.792 48.0571 257.425 48.4246L257.513 48.5129L257.601 48.6013C257.918 48.2848 258.318 48.125 258.81 48.125V48ZM276.19 48V47.875H258.81V48V48.125H276.19V48ZM277.487 48.5129L277.575 48.4246C277.208 48.0571 276.743 47.875 276.19 47.875V48V48.125C276.682 48.125 277.082 48.2848 277.399 48.6013L277.487 48.5129ZM278 49.8104H278.125C278.125 49.2572 277.943 48.792 277.575 48.4246L277.487 48.5129L277.399 48.6013C277.715 48.9178 277.875 49.3175 277.875 49.8104H278ZM278 62.3621H278.125V49.8104H278H277.875V62.3621H278ZM277.487 63.6595L277.575 63.7479C277.943 63.3805 278.125 62.9152 278.125 62.3621H278H277.875C277.875 62.8549 277.715 63.2546 277.399 63.5711L277.487 63.6595ZM276.19 64.1724V64.2974C276.743 64.2974 277.208 64.1153 277.575 63.7479L277.487 63.6595L277.399 63.5711C277.082 63.8876 276.682 64.0474 276.19 64.0474V64.1724ZM258.81 64.1724V64.2974H276.19V64.1724V64.0474H258.81V64.1724ZM263.728 55.6638V55.5388H257.845V55.6638V55.7888H263.728V55.6638ZM263.728 48.8448H263.603V55.6638H263.728H263.853V48.8448H263.728ZM258.81 48.8448V48.9698H263.728V48.8448V48.7198H258.81V48.8448ZM258.116 49.1164L258.205 49.2048C258.36 49.0496 258.558 48.9698 258.81 48.9698V48.8448V48.7198C258.499 48.7198 258.235 48.8211 258.028 49.028L258.116 49.1164ZM257.845 49.8104H257.97C257.97 49.5583 258.05 49.3599 258.205 49.2048L258.116 49.1164L258.028 49.028C257.821 49.2349 257.72 49.4992 257.72 49.8104H257.845ZM257.845 55.6638H257.97V49.8104H257.845H257.72V55.6638H257.845ZM264.573 55.6638V55.7888H270.427V55.6638V55.5388H264.573V55.6638ZM264.573 48.8448H264.448V55.6638H264.573H264.698V48.8448H264.573ZM270.427 48.8448V48.7198H264.573V48.8448V48.9698H270.427V48.8448ZM270.427 55.6638H270.552V48.8448H270.427H270.302V55.6638H270.427ZM277.155 55.6638V55.5388H271.272V55.6638V55.7888H277.155V55.6638ZM277.155 49.8104H277.03V55.6638H277.155H277.28V49.8104H277.155ZM276.884 49.1164L276.795 49.2048C276.95 49.3599 277.03 49.5583 277.03 49.8104H277.155H277.28C277.28 49.4992 277.179 49.2349 276.972 49.028L276.884 49.1164ZM276.19 48.8448V48.9698C276.442 48.9698 276.64 49.0496 276.795 49.2048L276.884 49.1164L276.972 49.028C276.765 48.8211 276.501 48.7198 276.19 48.7198V48.8448ZM271.272 48.8448V48.9698H276.19V48.8448V48.7198H271.272V48.8448ZM271.272 55.6638H271.397V48.8448H271.272H271.147V55.6638H271.272ZM263.728 63.3276H263.853V56.5086H263.728H263.603V63.3276H263.728ZM258.81 63.3276V63.4526H263.728V63.3276V63.2026H258.81V63.3276ZM258.116 63.056L258.028 63.1444C258.235 63.3514 258.499 63.4526 258.81 63.4526V63.3276V63.2026C258.558 63.2026 258.36 63.1228 258.205 62.9677L258.116 63.056ZM257.845 62.3621H257.72C257.72 62.6732 257.821 62.9375 258.028 63.1444L258.116 63.056L258.205 62.9677C258.05 62.8125 257.97 62.6142 257.97 62.3621H257.845ZM257.845 56.5086H257.72V62.3621H257.845H257.97V56.5086H257.845ZM263.728 56.5086V56.3836H257.845V56.5086V56.6336H263.728V56.5086ZM270.427 63.3276V63.2026H264.573V63.3276V63.4526H270.427V63.3276ZM270.427 56.5086H270.302V63.3276H270.427H270.552V56.5086H270.427ZM264.573 56.5086V56.6336H270.427V56.5086V56.3836H264.573V56.5086ZM264.573 63.3276H264.698V56.5086H264.573H264.448V63.3276H264.573ZM271.272 63.3276V63.4526H276.19V63.3276V63.2026H271.272V63.3276ZM271.272 56.5086H271.147V63.3276H271.272H271.397V56.5086H271.272ZM277.155 56.5086V56.3836H271.272V56.5086V56.6336H277.155V56.5086ZM277.155 62.3621H277.28V56.5086H277.155H277.03V62.3621H277.155ZM276.884 63.056L276.972 63.1444C277.179 62.9375 277.28 62.6732 277.28 62.3621H277.155H277.03C277.03 62.6142 276.95 62.8125 276.795 62.9677L276.884 63.056ZM276.19 63.3276V63.4526C276.501 63.4526 276.765 63.3514 276.972 63.1444L276.884 63.056L276.795 62.9677C276.64 63.1228 276.442 63.2026 276.19 63.2026V63.3276Z" fill="#BDC1C6"/>
</g>
</g>
<g id="Icons/menu-more-dark-grey">
<circle id="Oval_2" cx="246.789" cy="49.7895" r="1.78947" fill="#BDC1C6"/>
<circle id="Oval_3" cx="246.789" cy="56.9474" r="1.78947" fill="#BDC1C6"/>
<circle id="Oval_4" cx="246.789" cy="63.2105" r="1.78947" fill="#BDC1C6"/>
</g>
<g id="Icons/delete-white">
<path id="Line 19" d="M226.5 48.5H231.5" stroke="#BDC1C6" stroke-linecap="square"/>
<path id="Line 19_2" d="M226.5 48.5H231.5" stroke="#BDC1C6" stroke-linecap="square"/>
<path id="Line 19_3" d="M221.508 49.5H236.446" stroke="#BDC1C6" stroke-linecap="square"/>
<path id="Line 20" d="M226.979 53.4941V61.4941" stroke="#BDC1C6" stroke-linecap="square"/>
<path id="Line 20_2" d="M230.979 53.4941V61.4941" stroke="#BDC1C6" stroke-linecap="square"/>
<path id="Path 36" fill-rule="evenodd" clip-rule="evenodd" d="M223.025 49.7259V64C223.025 64 223.159 65.0893 224 65.0893C224.841 65.0893 234 65.0893 234 65.0893C234 65.0893 235.045 65.1915 235.045 64C235.045 62.8085 235.045 49.7259 235.045 49.7259H223.025Z" stroke="#BDC1C6"/>
</g>
<g id="Icons/user-add">
<path id="Path" d="M174.652 55.2534C175.746 55.2534 176.731 54.5945 177.149 53.5842C177.567 52.5738 177.334 51.4113 176.56 50.6392C175.786 49.867 174.623 49.6375 173.614 50.0577C172.605 50.478 171.948 51.4651 171.951 52.5584C171.951 53.2743 172.236 53.9608 172.742 54.4664C173.249 54.972 173.936 55.2552 174.652 55.2534Z" fill="white" stroke="#BDC1C6" stroke-linecap="round" stroke-linejoin="round"/>
<path id="Path_2" d="M174.652 57.3715C171.531 57.3715 169 60.2764 169 63.8501H180.298C180.298 60.2764 177.767 57.3715 174.652 57.3715Z" fill="white" stroke="#BDC1C6"/>
<g id="Group 38">
<path id="Line 9" d="M185.618 50.342V57.7737" stroke="#BDC1C6" stroke-linecap="square"/>
<path id="Line 10" d="M181.684 54.0578H189.116" stroke="#BDC1C6" stroke-linecap="square"/>
</g>
</g>
<g id="Icons/link">
<rect id="Rectangle_2" x="142.857" y="52.0451" width="19.2857" height="9.13534" rx="4.56767" stroke="#BDC1C6"/>
<rect id="Rectangle_3" x="150.978" y="49" width="3.04511" height="17.2556" fill="white"/>
<path id="Line 2" d="M149.455 56.6128H156.56" stroke="#BDC1C6" stroke-linecap="square"/>
</g>
<g id="visibility_BASELINE_P900">
<g id="Shape_3">
<path fill-rule="evenodd" clip-rule="evenodd" d="M204.6 63.4C202.517 63.4 200.617 62.8373 198.9 61.712C197.183 60.5873 195.883 59.0833 195 57.2C195.883 55.3167 197.183 53.8123 198.9 52.687C200.617 51.5623 202.517 51 204.6 51C206.683 51 208.583 51.5623 210.3 52.687C212.017 53.8123 213.317 55.3167 214.2 57.2C213.317 59.0833 212.017 60.5873 210.3 61.712C208.583 62.8373 206.683 63.4 204.6 63.4ZM207.013 59.612C206.354 60.2707 205.55 60.6 204.6 60.6C203.65 60.6 202.846 60.2707 202.188 59.612C201.529 58.954 201.2 58.15 201.2 57.2C201.2 56.25 201.529 55.4457 202.188 54.787C202.846 54.129 203.65 53.8 204.6 53.8C205.55 53.8 206.354 54.129 207.013 54.787C207.671 55.4457 208 56.25 208 57.2C208 58.15 207.671 58.954 207.013 59.612ZM202.688 59.112C203.213 59.6373 203.85 59.9 204.6 59.9C205.35 59.9 205.988 59.6373 206.513 59.112C207.038 58.5873 207.3 57.95 207.3 57.2C207.3 56.45 207.038 55.8123 206.513 55.287C205.988 54.7623 205.35 54.5 204.6 54.5C203.85 54.5 203.213 54.7623 202.688 55.287C202.163 55.8123 201.9 56.45 201.9 57.2C201.9 57.95 202.163 58.5873 202.688 59.112ZM209.788 61.212C208.213 62.204 206.483 62.7 204.6 62.7C202.717 62.7 200.987 62.204 199.412 61.212C197.837 60.2207 196.633 58.8833 195.8 57.2C196.633 55.5167 197.837 54.179 199.412 53.187C200.987 52.1957 202.717 51.7 204.6 51.7C206.483 51.7 208.213 52.1957 209.788 53.187C211.363 54.179 212.567 55.5167 213.4 57.2C212.567 58.8833 211.363 60.2207 209.788 61.212Z" fill="#BDC1C6"/>
<path d="M198.9 61.712L198.996 61.5656L198.996 61.5656L198.9 61.712ZM195 57.2L194.842 57.1257L194.807 57.2L194.842 57.2743L195 57.2ZM198.9 52.687L198.804 52.5406L198.804 52.5406L198.9 52.687ZM210.3 52.687L210.396 52.5406L210.396 52.5406L210.3 52.687ZM214.2 57.2L214.358 57.2743L214.393 57.2L214.358 57.1257L214.2 57.2ZM210.3 61.712L210.204 61.5656L210.204 61.5656L210.3 61.712ZM207.013 59.612L207.137 59.7357V59.7357L207.013 59.612ZM202.188 59.612L202.312 59.4883L202.312 59.4882L202.188 59.612ZM202.188 54.787L202.064 54.6633V54.6633L202.188 54.787ZM207.013 54.787L207.137 54.6633L207.137 54.6632L207.013 54.787ZM202.688 59.112L202.812 58.9883L202.812 58.9882L202.688 59.112ZM206.513 59.112L206.637 59.2357V59.2357L206.513 59.112ZM206.513 55.287L206.637 55.1633L206.637 55.1632L206.513 55.287ZM202.688 55.287L202.812 55.4107V55.4107L202.688 55.287ZM209.788 61.212L209.695 61.0639L209.695 61.0639L209.788 61.212ZM199.412 61.212L199.505 61.0639L199.505 61.0639L199.412 61.212ZM195.8 57.2L195.643 57.1224L195.605 57.2L195.643 57.2776L195.8 57.2ZM199.412 53.187L199.319 53.0389L199.319 53.0389L199.412 53.187ZM209.788 53.187L209.881 53.0389L209.881 53.0389L209.788 53.187ZM213.4 57.2L213.557 57.2776L213.595 57.2L213.557 57.1224L213.4 57.2ZM198.9 61.712L198.804 61.8584C200.55 63.0027 202.483 63.575 204.6 63.575V63.4V63.225C202.55 63.225 200.684 62.672 198.996 61.5656L198.9 61.712ZM195 57.2L194.842 57.2743C195.738 59.1866 197.06 60.7157 198.804 61.8584L198.9 61.712L198.996 61.5656C197.307 60.459 196.028 58.9801 195.158 57.1257L195 57.2ZM198.9 52.687L198.804 52.5406C197.06 53.684 195.738 55.2134 194.842 57.1257L195 57.2L195.158 57.2743C196.028 55.4199 197.307 53.9407 198.996 52.8334L198.9 52.687ZM204.6 51V50.825C202.483 50.825 200.55 51.397 198.804 52.5406L198.9 52.687L198.996 52.8334C200.684 51.7277 202.55 51.175 204.6 51.175V51ZM210.3 52.687L210.396 52.5406C208.65 51.397 206.717 50.825 204.6 50.825V51V51.175C206.65 51.175 208.516 51.7277 210.204 52.8334L210.3 52.687ZM214.2 57.2L214.358 57.1257C213.462 55.2134 212.14 53.684 210.396 52.5406L210.3 52.687L210.204 52.8334C211.893 53.9407 213.172 55.4199 214.042 57.2743L214.2 57.2ZM210.3 61.712L210.396 61.8584C212.14 60.7157 213.462 59.1866 214.358 57.2743L214.2 57.2L214.042 57.1257C213.172 58.9801 211.893 60.459 210.204 61.5656L210.3 61.712ZM204.6 63.4V63.575C206.717 63.575 208.65 63.0027 210.396 61.8584L210.3 61.712L210.204 61.5656C208.516 62.672 206.65 63.225 204.6 63.225V63.4ZM204.6 60.6V60.775C205.595 60.775 206.445 60.428 207.137 59.7357L207.013 59.612L206.889 59.4883C206.264 60.1134 205.505 60.425 204.6 60.425V60.6ZM202.188 59.612L202.064 59.7357C202.756 60.4279 203.605 60.775 204.6 60.775V60.6V60.425C203.695 60.425 202.936 60.1134 202.312 59.4883L202.188 59.612ZM201.2 57.2H201.025C201.025 58.1954 201.372 59.0442 202.064 59.7358L202.188 59.612L202.312 59.4882C201.687 58.8638 201.375 58.1046 201.375 57.2H201.2ZM202.188 54.787L202.064 54.6633C201.372 55.3555 201.025 56.2046 201.025 57.2H201.2H201.375C201.375 56.2954 201.687 55.5359 202.312 54.9107L202.188 54.787ZM204.6 53.8V53.625C203.605 53.625 202.756 53.9717 202.064 54.6633L202.188 54.787L202.312 54.9107C202.936 54.2863 203.695 53.975 204.6 53.975V53.8ZM207.013 54.787L207.137 54.6632C206.444 53.9717 205.595 53.625 204.6 53.625V53.8V53.975C205.505 53.975 206.264 54.2863 206.889 54.9108L207.013 54.787ZM208 57.2H208.175C208.175 56.2047 207.828 55.3555 207.137 54.6633L207.013 54.787L206.889 54.9107C207.514 55.5358 207.825 56.2953 207.825 57.2H208ZM207.013 59.612L207.137 59.7357C207.828 59.0442 208.175 58.1953 208.175 57.2H208H207.825C207.825 58.1047 207.514 58.8638 206.889 59.4883L207.013 59.612ZM204.6 59.9V59.725C203.896 59.725 203.303 59.4804 202.812 58.9883L202.688 59.112L202.564 59.2357C203.122 59.7942 203.804 60.075 204.6 60.075V59.9ZM206.513 59.112L206.389 58.9883C205.897 59.4804 205.304 59.725 204.6 59.725V59.9V60.075C205.396 60.075 206.078 59.7942 206.637 59.2357L206.513 59.112ZM207.3 57.2H207.125C207.125 57.9042 206.881 58.4968 206.389 58.9883L206.513 59.112L206.637 59.2357C207.195 58.6779 207.475 57.9958 207.475 57.2H207.3ZM206.513 55.287L206.389 55.4107C206.881 55.9028 207.125 56.4958 207.125 57.2H207.3H207.475C207.475 56.4042 207.195 55.7219 206.637 55.1633L206.513 55.287ZM204.6 54.5V54.675C205.304 54.675 205.897 54.9193 206.389 55.4108L206.513 55.287L206.637 55.1632C206.078 54.6054 205.396 54.325 204.6 54.325V54.5ZM202.688 55.287L202.812 55.4107C203.303 54.9193 203.896 54.675 204.6 54.675V54.5V54.325C203.804 54.325 203.122 54.6054 202.564 55.1633L202.688 55.287ZM201.9 57.2H202.075C202.075 56.4959 202.32 55.9029 202.812 55.4107L202.688 55.287L202.564 55.1633C202.006 55.7218 201.725 56.4041 201.725 57.2H201.9ZM202.688 59.112L202.812 58.9882C202.32 58.4967 202.075 57.9041 202.075 57.2H201.9H201.725C201.725 57.9959 202.006 58.678 202.564 59.2358L202.688 59.112ZM204.6 62.7V62.875C206.516 62.875 208.278 62.3699 209.881 61.3601L209.788 61.212L209.695 61.0639C208.148 62.0381 206.451 62.525 204.6 62.525V62.7ZM199.412 61.212L199.319 61.3601C200.922 62.3699 202.684 62.875 204.6 62.875V62.7V62.525C202.749 62.525 201.052 62.0381 199.505 61.0639L199.412 61.212ZM195.8 57.2L195.643 57.2776C196.491 58.9896 197.717 60.3514 199.319 61.3601L199.412 61.212L199.505 61.0639C197.958 60.0899 196.776 58.7771 195.957 57.1224L195.8 57.2ZM199.412 53.187L199.319 53.0389C197.717 54.0483 196.491 55.4104 195.643 57.1224L195.8 57.2L195.957 57.2776C196.776 55.6229 197.958 54.3097 199.505 53.3351L199.412 53.187ZM204.6 51.7V51.525C202.684 51.525 200.922 52.0298 199.319 53.0389L199.412 53.187L199.505 53.3351C201.052 52.3616 202.749 51.875 204.6 51.875V51.7ZM209.788 53.187L209.881 53.0389C208.278 52.0298 206.516 51.525 204.6 51.525V51.7V51.875C206.451 51.875 208.148 52.3616 209.695 53.3351L209.788 53.187ZM213.4 57.2L213.557 57.1224C212.709 55.4104 211.483 54.0483 209.881 53.0389L209.788 53.187L209.695 53.3351C211.242 54.3097 212.424 55.6229 213.243 57.2776L213.4 57.2ZM209.788 61.212L209.881 61.3601C211.483 60.3514 212.709 58.9896 213.557 57.2776L213.4 57.2L213.243 57.1224C212.424 58.7771 211.242 60.0899 209.695 61.0639L209.788 61.212Z" fill="#BDC1C6"/>
</g>
</g>
</g>
<g id="Drive FAB">
<rect id="Rectangle_4" x="13.5" y="50" width="48" height="27" rx="7" fill="white" stroke="#BDC1C6"/>
<path id="Line_3" d="M33.5 63.5H56.5" stroke="#BDC1C6" stroke-linecap="round"/>
<path id="Plus" d="M22.6154 68.5V63.8846H18V63.1154H22.6154V58.5H23.3846V63.1154H28V63.8846H23.3846V68.5H22.6154Z" fill="#BDC1C6" stroke="#BDC1C6" stroke-width="0.5"/>
</g>
<g id="popup" clip-path="url(#clip1_2_31467)">
<rect id="Rectangle_5" x="145.5" y="64.5" width="116" height="89" fill="white" stroke="#1F1F1F"/>
<rect id="Rectangle_6" x="146" y="114" width="115" height="19" fill="#F1F3F4"/>
<path id="Add to starred" d="M177.209 127.5L180.058 119.624H181.103L183.963 127.5H182.951L182.192 125.333H178.969L178.21 127.5H177.209ZM181.884 124.453L180.894 121.604L180.608 120.757H180.564L180.267 121.604L179.277 124.453H181.884ZM187.062 127.676C186.541 127.676 186.086 127.548 185.698 127.291C185.309 127.027 185.008 126.664 184.796 126.202C184.583 125.74 184.477 125.208 184.477 124.607C184.477 123.998 184.583 123.467 184.796 123.012C185.008 122.55 185.305 122.191 185.687 121.934C186.075 121.67 186.53 121.538 187.051 121.538C187.344 121.538 187.612 121.586 187.854 121.681C188.096 121.769 188.305 121.886 188.481 122.033C188.657 122.18 188.792 122.337 188.888 122.506H188.932L188.888 121.714V118.964H189.812V127.5H188.932V126.686H188.888C188.792 126.855 188.657 127.016 188.481 127.17C188.305 127.324 188.096 127.445 187.854 127.533C187.619 127.628 187.355 127.676 187.062 127.676ZM187.161 126.829C187.513 126.829 187.821 126.745 188.085 126.576C188.349 126.407 188.554 126.158 188.701 125.828C188.855 125.491 188.932 125.084 188.932 124.607C188.932 124.123 188.855 123.716 188.701 123.386C188.554 123.056 188.349 122.807 188.085 122.638C187.821 122.469 187.513 122.385 187.161 122.385C186.816 122.385 186.508 122.469 186.237 122.638C185.973 122.807 185.767 123.056 185.621 123.386C185.474 123.716 185.401 124.123 185.401 124.607C185.401 125.084 185.474 125.491 185.621 125.828C185.767 126.158 185.973 126.407 186.237 126.576C186.508 126.745 186.816 126.829 187.161 126.829ZM193.604 127.676C193.083 127.676 192.628 127.548 192.24 127.291C191.851 127.027 191.55 126.664 191.338 126.202C191.125 125.74 191.019 125.208 191.019 124.607C191.019 123.998 191.125 123.467 191.338 123.012C191.55 122.55 191.847 122.191 192.229 121.934C192.617 121.67 193.072 121.538 193.593 121.538C193.886 121.538 194.154 121.586 194.396 121.681C194.638 121.769 194.847 121.886 195.023 122.033C195.199 122.18 195.334 122.337 195.43 122.506H195.474L195.43 121.714V118.964H196.354V127.5H195.474V126.686H195.43C195.334 126.855 195.199 127.016 195.023 127.17C194.847 127.324 194.638 127.445 194.396 127.533C194.161 127.628 193.897 127.676 193.604 127.676ZM193.703 126.829C194.055 126.829 194.363 126.745 194.627 126.576C194.891 126.407 195.096 126.158 195.243 125.828C195.397 125.491 195.474 125.084 195.474 124.607C195.474 124.123 195.397 123.716 195.243 123.386C195.096 123.056 194.891 122.807 194.627 122.638C194.363 122.469 194.055 122.385 193.703 122.385C193.358 122.385 193.05 122.469 192.779 122.638C192.515 122.807 192.309 123.056 192.163 123.386C192.016 123.716 191.943 124.123 191.943 124.607C191.943 125.084 192.016 125.491 192.163 125.828C192.309 126.158 192.515 126.407 192.779 126.576C193.05 126.745 193.358 126.829 193.703 126.829ZM200.319 121.714H201.232V120.13H202.156V121.714H203.465V122.561H202.156V125.839C202.156 126.118 202.218 126.334 202.343 126.488C202.467 126.642 202.654 126.719 202.904 126.719C203.028 126.719 203.135 126.704 203.223 126.675C203.318 126.646 203.406 126.605 203.487 126.554V127.456C203.391 127.493 203.289 127.522 203.179 127.544C203.069 127.573 202.926 127.588 202.75 127.588C202.295 127.588 201.928 127.452 201.65 127.181C201.371 126.902 201.232 126.517 201.232 126.026V122.561H200.319V121.714ZM206.918 127.676C206.353 127.676 205.862 127.548 205.444 127.291C205.033 127.027 204.714 126.664 204.487 126.202C204.259 125.74 204.146 125.208 204.146 124.607C204.146 123.998 204.259 123.467 204.487 123.012C204.714 122.55 205.033 122.191 205.444 121.934C205.862 121.67 206.353 121.538 206.918 121.538C207.482 121.538 207.97 121.67 208.381 121.934C208.791 122.191 209.107 122.55 209.327 123.012C209.554 123.467 209.668 123.998 209.668 124.607C209.668 125.208 209.554 125.74 209.327 126.202C209.107 126.664 208.791 127.027 208.381 127.291C207.97 127.548 207.482 127.676 206.918 127.676ZM206.918 126.829C207.277 126.829 207.592 126.741 207.864 126.565C208.142 126.389 208.359 126.136 208.513 125.806C208.667 125.476 208.744 125.076 208.744 124.607C208.744 124.138 208.667 123.738 208.513 123.408C208.359 123.078 208.142 122.825 207.864 122.649C207.592 122.473 207.277 122.385 206.918 122.385C206.558 122.385 206.239 122.473 205.961 122.649C205.682 122.825 205.462 123.078 205.301 123.408C205.147 123.738 205.07 124.138 205.07 124.607C205.07 125.076 205.147 125.476 205.301 125.806C205.462 126.136 205.682 126.389 205.961 126.565C206.239 126.741 206.558 126.829 206.918 126.829ZM215.954 127.676C215.456 127.676 215.001 127.584 214.59 127.401C214.187 127.218 213.853 126.95 213.589 126.598C213.325 126.246 213.149 125.817 213.061 125.311L214.007 125.102C214.088 125.593 214.29 125.997 214.612 126.312C214.942 126.627 215.397 126.785 215.976 126.785C216.328 126.785 216.636 126.73 216.9 126.62C217.172 126.503 217.381 126.341 217.527 126.136C217.681 125.923 217.758 125.678 217.758 125.399C217.758 125.12 217.692 124.893 217.56 124.717C217.436 124.541 217.245 124.391 216.988 124.266C216.732 124.134 216.409 124.009 216.02 123.892L215.415 123.705C215.122 123.617 214.847 123.514 214.59 123.397C214.334 123.272 214.106 123.126 213.908 122.957C213.718 122.788 213.567 122.587 213.457 122.352C213.355 122.117 213.303 121.842 213.303 121.527C213.303 121.138 213.413 120.79 213.633 120.482C213.853 120.167 214.158 119.917 214.546 119.734C214.942 119.543 215.393 119.448 215.899 119.448C216.449 119.448 216.908 119.543 217.274 119.734C217.648 119.925 217.934 120.178 218.132 120.493C218.338 120.801 218.455 121.138 218.484 121.505L217.604 121.637C217.553 121.373 217.458 121.146 217.318 120.955C217.179 120.757 216.992 120.607 216.757 120.504C216.53 120.394 216.248 120.339 215.91 120.339C215.602 120.339 215.32 120.39 215.063 120.493C214.814 120.588 214.612 120.724 214.458 120.9C214.312 121.076 214.238 121.281 214.238 121.516C214.238 121.846 214.381 122.114 214.667 122.319C214.961 122.524 215.375 122.711 215.91 122.88L216.515 123.067C216.794 123.155 217.062 123.258 217.318 123.375C217.582 123.492 217.817 123.643 218.022 123.826C218.228 124.002 218.389 124.218 218.506 124.475C218.631 124.724 218.693 125.032 218.693 125.399C218.693 125.758 218.624 126.081 218.484 126.367C218.345 126.646 218.151 126.884 217.901 127.082C217.652 127.28 217.359 127.427 217.021 127.522C216.691 127.625 216.336 127.676 215.954 127.676ZM219.29 121.714H220.203V120.13H221.127V121.714H222.436V122.561H221.127V125.839C221.127 126.118 221.189 126.334 221.314 126.488C221.438 126.642 221.625 126.719 221.875 126.719C221.999 126.719 222.106 126.704 222.194 126.675C222.289 126.646 222.377 126.605 222.458 126.554V127.456C222.362 127.493 222.26 127.522 222.15 127.544C222.04 127.573 221.897 127.588 221.721 127.588C221.266 127.588 220.899 127.452 220.621 127.181C220.342 126.902 220.203 126.517 220.203 126.026V122.561H219.29V121.714ZM225.346 127.676C224.95 127.676 224.602 127.603 224.301 127.456C224 127.309 223.766 127.104 223.597 126.84C223.428 126.569 223.344 126.25 223.344 125.883C223.344 125.494 223.443 125.172 223.641 124.915C223.846 124.651 224.114 124.453 224.444 124.321C224.781 124.189 225.144 124.123 225.533 124.123C225.76 124.123 225.969 124.134 226.16 124.156C226.358 124.171 226.545 124.196 226.721 124.233C226.904 124.27 227.08 124.317 227.249 124.376V123.738C227.249 123.32 227.11 122.99 226.831 122.748C226.552 122.499 226.197 122.374 225.764 122.374C225.383 122.374 225.067 122.462 224.818 122.638C224.569 122.807 224.396 123.06 224.301 123.397L223.465 123.188C223.531 122.843 223.67 122.55 223.883 122.308C224.096 122.059 224.363 121.868 224.686 121.736C225.016 121.604 225.375 121.538 225.764 121.538C226.519 121.538 227.102 121.729 227.513 122.11C227.931 122.491 228.14 123.027 228.14 123.716V127.5H227.249V126.741H227.205C227.102 126.888 226.967 127.034 226.798 127.181C226.629 127.328 226.424 127.445 226.182 127.533C225.947 127.628 225.669 127.676 225.346 127.676ZM225.511 126.862C225.848 126.862 226.145 126.789 226.402 126.642C226.666 126.495 226.871 126.294 227.018 126.037C227.172 125.773 227.249 125.48 227.249 125.157C226.978 125.054 226.717 124.981 226.468 124.937C226.219 124.893 225.962 124.871 225.698 124.871C225.28 124.871 224.939 124.952 224.675 125.113C224.418 125.267 224.29 125.524 224.29 125.883C224.29 126.176 224.404 126.415 224.631 126.598C224.866 126.774 225.159 126.862 225.511 126.862ZM229.677 127.5V121.714H230.557V122.517H230.601C230.674 122.326 230.788 122.158 230.942 122.011C231.096 121.864 231.272 121.751 231.47 121.67C231.675 121.589 231.884 121.549 232.097 121.549C232.236 121.549 232.35 121.556 232.438 121.571C232.526 121.586 232.603 121.608 232.669 121.637V122.616C232.566 122.565 232.456 122.528 232.339 122.506C232.222 122.484 232.101 122.473 231.976 122.473C231.719 122.473 231.485 122.546 231.272 122.693C231.067 122.84 230.902 123.038 230.777 123.287C230.66 123.529 230.601 123.797 230.601 124.09V127.5H229.677ZM233.845 127.5V121.714H234.725V122.517H234.769C234.842 122.326 234.956 122.158 235.11 122.011C235.264 121.864 235.44 121.751 235.638 121.67C235.843 121.589 236.052 121.549 236.265 121.549C236.404 121.549 236.518 121.556 236.606 121.571C236.694 121.586 236.771 121.608 236.837 121.637V122.616C236.734 122.565 236.624 122.528 236.507 122.506C236.39 122.484 236.269 122.473 236.144 122.473C235.887 122.473 235.653 122.546 235.44 122.693C235.235 122.84 235.07 123.038 234.945 123.287C234.828 123.529 234.769 123.797 234.769 124.09V127.5H233.845ZM240.001 127.676C239.458 127.676 238.985 127.544 238.582 127.28C238.186 127.009 237.878 126.642 237.658 126.18C237.445 125.718 237.339 125.197 237.339 124.618C237.339 124.024 237.449 123.496 237.669 123.034C237.896 122.565 238.208 122.198 238.604 121.934C239.007 121.67 239.469 121.538 239.99 121.538C240.547 121.538 241.017 121.648 241.398 121.868C241.787 122.088 242.084 122.403 242.289 122.814C242.494 123.217 242.597 123.701 242.597 124.266C242.597 124.361 242.593 124.457 242.586 124.552C242.586 124.64 242.582 124.717 242.575 124.783H238.263C238.278 125.179 238.351 125.524 238.483 125.817C238.63 126.147 238.835 126.4 239.099 126.576C239.37 126.745 239.682 126.829 240.034 126.829C240.496 126.829 240.844 126.734 241.079 126.543C241.321 126.345 241.497 126.092 241.607 125.784L242.421 126.004C242.304 126.473 242.043 126.869 241.64 127.192C241.244 127.515 240.698 127.676 240.001 127.676ZM238.307 124.013H241.629C241.622 123.764 241.581 123.54 241.508 123.342C241.442 123.137 241.339 122.964 241.2 122.825C241.068 122.678 240.899 122.568 240.694 122.495C240.496 122.414 240.261 122.374 239.99 122.374C239.645 122.374 239.341 122.462 239.077 122.638C238.82 122.807 238.622 123.056 238.483 123.386C238.402 123.569 238.344 123.778 238.307 124.013ZM246.154 127.676C245.634 127.676 245.179 127.548 244.79 127.291C244.402 127.027 244.101 126.664 243.888 126.202C243.676 125.74 243.569 125.208 243.569 124.607C243.569 123.998 243.676 123.467 243.888 123.012C244.101 122.55 244.398 122.191 244.779 121.934C245.168 121.67 245.623 121.538 246.143 121.538C246.437 121.538 246.704 121.586 246.946 121.681C247.188 121.769 247.397 121.886 247.573 122.033C247.749 122.18 247.885 122.337 247.98 122.506H248.024L247.98 121.714V118.964H248.904V127.5H248.024V126.686H247.98C247.885 126.855 247.749 127.016 247.573 127.17C247.397 127.324 247.188 127.445 246.946 127.533C246.712 127.628 246.448 127.676 246.154 127.676ZM246.253 126.829C246.605 126.829 246.913 126.745 247.177 126.576C247.441 126.407 247.647 126.158 247.793 125.828C247.947 125.491 248.024 125.084 248.024 124.607C248.024 124.123 247.947 123.716 247.793 123.386C247.647 123.056 247.441 122.807 247.177 122.638C246.913 122.469 246.605 122.385 246.253 122.385C245.909 122.385 245.601 122.469 245.329 122.638C245.065 122.807 244.86 123.056 244.713 123.386C244.567 123.716 244.493 124.123 244.493 124.607C244.493 125.084 244.567 125.491 244.713 125.828C244.86 126.158 245.065 126.407 245.329 126.576C245.601 126.745 245.909 126.829 246.253 126.829Z" fill="#1F1F1F"/>
<path id="Stroke 205 Copy 3_3" d="M155 77.5852H251.474" stroke="#BDC1C6" stroke-linecap="round" stroke-linejoin="round"/>
<path id="Stroke 205 Copy 2_7" d="M155 92.5852H251.474" stroke="#BDC1C6" stroke-linecap="round" stroke-linejoin="round"/>
<path id="Stroke 205 Copy 2_8" d="M155 107.585H189.832H251.474" stroke="#BDC1C6" stroke-linecap="round" stroke-linejoin="round"/>
<path id="Stroke 205 Copy 2_9" d="M155 138.585H251.474" stroke="#BDC1C6" stroke-linecap="round" stroke-linejoin="round"/>
<g id="Cursor ">
<g id="Union">
<mask id="path-47-outside-1_2_31467" maskUnits="userSpaceOnUse" x="221.538" y="123.084" width="44.5477" height="44.5477" fill="black">
<rect fill="white" x="221.538" y="123.084" width="44.5477" height="44.5477"/>
<path fill-rule="evenodd" clip-rule="evenodd" d="M233.436 133.547C232.704 133.365 232.042 134.027 232.224 134.759L236.281 151.059C236.469 151.814 237.409 152.074 237.959 151.524L242.639 146.844L253.089 157.294C253.87 158.075 255.136 158.075 255.917 157.294C256.698 156.513 256.698 155.247 255.917 154.466L245.468 144.016L250.202 139.282C250.751 138.732 250.491 137.792 249.736 137.604L233.436 133.547Z"/>
</mask>
<path fill-rule="evenodd" clip-rule="evenodd" d="M233.436 133.547C232.704 133.365 232.042 134.027 232.224 134.759L236.281 151.059C236.469 151.814 237.409 152.074 237.959 151.524L242.639 146.844L253.089 157.294C253.87 158.075 255.136 158.075 255.917 157.294C256.698 156.513 256.698 155.247 255.917 154.466L245.468 144.016L250.202 139.282C250.751 138.732 250.491 137.792 249.736 137.604L233.436 133.547Z" fill="#FBBC04"/>
<path d="M232.224 134.759L234.165 134.276L234.165 134.276L232.224 134.759ZM233.436 133.547L233.919 131.606L233.919 131.606L233.436 133.547ZM236.281 151.059L238.222 150.576L238.222 150.576L236.281 151.059ZM242.639 146.844L244.053 145.43L242.639 144.016L241.225 145.43L242.639 146.844ZM245.468 144.016L244.053 142.601L242.639 144.016L244.053 145.43L245.468 144.016ZM249.736 137.604L249.253 139.545H249.253L249.736 137.604ZM232.224 134.759L234.165 134.276C234.347 135.008 233.685 135.67 232.953 135.488L233.436 133.547L233.919 131.606C231.724 131.06 229.737 133.047 230.283 135.242L232.224 134.759ZM236.281 151.059L238.222 150.576L234.165 134.276L232.224 134.759L230.283 135.242L234.341 151.542L236.281 151.059ZM237.959 151.524L236.545 150.11C237.095 149.56 238.034 149.821 238.222 150.576L236.281 151.059L234.341 151.542C234.904 153.806 237.723 154.588 239.373 152.939L237.959 151.524ZM242.639 146.844L241.225 145.43L236.545 150.11L237.959 151.524L239.373 152.939L244.053 148.258L242.639 146.844ZM253.089 157.294L254.503 155.88L244.053 145.43L242.639 146.844L241.225 148.258L251.675 158.708L253.089 157.294ZM255.917 157.294L254.503 155.88L253.089 157.294L251.675 158.708C253.237 160.27 255.77 160.27 257.332 158.708L255.917 157.294ZM255.917 154.466L254.503 155.88L254.503 155.88L255.917 157.294L257.332 158.708C258.894 157.146 258.894 154.613 257.332 153.051L255.917 154.466ZM245.468 144.016L244.053 145.43L254.503 155.88L255.917 154.466L257.332 153.051L246.882 142.601L245.468 144.016ZM250.202 139.282L248.787 137.868L244.053 142.601L245.468 144.016L246.882 145.43L251.616 140.696L250.202 139.282ZM249.736 137.604L249.253 139.545C248.498 139.357 248.237 138.417 248.787 137.868L250.202 139.282L251.616 140.696C253.266 139.046 252.483 136.227 250.219 135.663L249.736 137.604ZM233.436 133.547L232.953 135.488L249.253 139.545L249.736 137.604L250.219 135.663L233.919 131.606L233.436 133.547Z" fill="white" mask="url(#path-47-outside-1_2_31467)"/>
</g>
</g>
<path id="Shape_4" fill-rule="evenodd" clip-rule="evenodd" d="M160.162 125.487L158.184 132L163.5 127.995L168.816 132L166.838 125.487L172 121.788H165.571L163.5 115L161.429 121.788H155L160.162 125.487ZM163.5 126.645L160.62 129L161.67 125.097L159 123H162.36L163.5 119L164.64 123H168L165.33 125.097L166.38 129L163.5 126.645Z" fill="#1F1F1F"/>
</g>
<g id="Search">
<rect x="77.65" y="12.65" width="161.7" height="26.7" rx="13.35" fill="white"/>
<rect x="77.65" y="12.65" width="161.7" height="26.7" rx="13.35" stroke="#BDC1C6" stroke-width="1.3"/>
<g id="search icon">
<path id="Line 6" d="M102 29L107 34" stroke="#BDC1C6" stroke-width="1.3" stroke-linecap="square"/>
<circle id="Oval_5" cx="97.5" cy="24.5" r="6.5" stroke="#BDC1C6" stroke-width="1.3"/>
</g>
<g id="text">
<path id="text_2" d="M113 26H168" stroke="#BDC1C6" stroke-width="1.3" stroke-linecap="round" stroke-linejoin="round"/>
</g>
</g>
<g id="Forms icon" opacity="0.5">
<g id="Group 2147231059">
<path id="Vector" d="M98.3332 143.792H91.6248C90.037 143.792 88.7498 145.079 88.7498 146.667C88.7498 148.255 90.037 149.542 91.6248 149.542H98.3332C99.9211 149.542 101.208 148.255 101.208 146.667C101.208 145.079 99.9211 143.792 98.3332 143.792Z" fill="#969DFF"/>
<path id="Vector_2" d="M83 146.667C83 145.904 83.3029 145.173 83.8421 144.634C84.3813 144.095 85.1125 143.792 85.875 143.792C86.6375 143.792 87.3688 144.095 87.908 144.634C88.4472 145.173 88.7501 145.904 88.7501 146.667C88.7501 147.429 88.4472 148.161 87.908 148.7C87.3688 149.239 86.6375 149.542 85.875 149.542C85.1125 149.542 84.3813 149.239 83.8421 148.7C83.3029 148.161 83 147.429 83 146.667Z" fill="#B8C0FF"/>
<path id="Vector_3" d="M83 140.917C83 140.154 83.3029 139.423 83.8421 138.884C84.3813 138.345 85.1125 138.042 85.875 138.042C86.6375 138.042 87.3688 138.345 87.908 138.884C88.4472 139.423 88.7501 140.154 88.7501 140.917C88.7501 141.679 88.4472 142.411 87.908 142.95C87.3688 143.489 86.6375 143.792 85.875 143.792C85.1125 143.792 84.3813 143.489 83.8421 142.95C83.3029 142.411 83 141.679 83 140.917Z" fill="#5746E3"/>
<path id="Vector_4" d="M98.3332 138.042H91.6248C90.037 138.042 88.7498 139.329 88.7498 140.917C88.7498 142.505 90.037 143.792 91.6248 143.792H98.3332C99.9211 143.792 101.208 142.505 101.208 140.917C101.208 139.329 99.9211 138.042 98.3332 138.042Z" fill="#5746E3"/>
<g id="Mask group">
<mask id="mask0_2_31467" style="mask-type:alpha" maskUnits="userSpaceOnUse" x="88" y="132" width="14" height="7">
<g id="Group">
<path id="Vector_5" d="M98.333 132.292H91.6246C90.0367 132.292 88.7495 133.579 88.7495 135.167C88.7495 136.755 90.0367 138.042 91.6246 138.042H98.333C99.9208 138.042 101.208 136.755 101.208 135.167C101.208 133.579 99.9208 132.292 98.333 132.292Z" fill="#5F54F4"/>
</g>
</mask>
<g mask="url(#mask0_2_31467)">
<g id="Group_2">
<path id="Vector_6" d="M98.3332 132.292H91.6248C90.037 132.292 88.7498 133.579 88.7498 135.167C88.7498 136.754 90.037 138.042 91.6248 138.042H98.3332C99.9211 138.042 101.208 136.754 101.208 135.167C101.208 133.579 99.9211 132.292 98.3332 132.292Z" fill="#7372FE"/>
<g id="Group_3" filter="url(#filter0_f_2_31467)">
<path id="Vector_7" d="M86.8336 139.24C89.2153 139.24 91.1461 137.309 91.1461 134.927C91.1461 132.545 89.2153 130.615 86.8336 130.615C84.4518 130.615 82.521 132.545 82.521 134.927C82.521 137.309 84.4518 139.24 86.8336 139.24Z" fill="#64AFFF"/>
</g>
</g>
</g>
</g>
<path id="Vector_8" d="M83 135.167C83 134.404 83.3029 133.673 83.8421 133.134C84.3813 132.595 85.1125 132.292 85.875 132.292C86.6375 132.292 87.3688 132.595 87.908 133.134C88.4472 133.673 88.7501 134.404 88.7501 135.167C88.7501 135.929 88.4472 136.66 87.908 137.2C87.3688 137.739 86.6375 138.042 85.875 138.042C85.1125 138.042 84.3813 137.739 83.8421 137.2C83.3029 136.66 83 135.929 83 135.167Z" fill="#7372FE"/>
<path id="Vector_9" d="M92.1042 135.167H97.8543" stroke="white" stroke-width="1.58333" stroke-linecap="round"/>
<path id="Vector_10" d="M85.8748 136.604C86.6687 136.604 87.3123 135.961 87.3123 135.167C87.3123 134.373 86.6687 133.729 85.8748 133.729C85.0809 133.729 84.4373 134.373 84.4373 135.167C84.4373 135.961 85.0809 136.604 85.8748 136.604Z" fill="white"/>
</g>
</g>
<g id="Slides icon" opacity="0.5">
<g id="slides_2026-24px 1">
<path id="Vector_11" d="M94.6639 108.919C95.0535 108.84 95.4517 108.857 95.8359 108.969C96.22 109.081 96.5826 109.286 96.9026 109.571C97.2227 109.856 97.4941 110.217 97.7012 110.632C97.9084 111.047 98.0471 111.508 98.1096 111.989L99.6868 123.922C99.7505 124.403 99.7369 124.894 99.6469 125.368C99.5569 125.842 99.3921 126.289 99.1621 126.685C98.9321 127.08 98.6412 127.415 98.3062 127.672C97.9712 127.928 97.5986 128.1 97.2096 128.179L87.7468 130.085C87.3579 130.163 86.9602 130.147 86.5766 130.035C86.1929 129.924 85.8307 129.721 85.5107 129.437C85.1907 129.152 84.9192 128.793 84.7116 128.379C84.5041 127.965 84.3646 127.505 84.3011 127.025L82.7239 115.092C82.659 114.611 82.6716 114.118 82.7611 113.643C82.8505 113.168 83.015 112.719 83.2452 112.323C83.4753 111.926 83.7666 111.59 84.1022 111.333C84.4379 111.076 84.8113 110.903 85.2011 110.825L94.6639 108.919Z" fill="url(#paint0_linear_2_31467)"/>
<path id="Vector_12" d="M97.6379 111.036H84.7808C83.5973 111.036 82.6379 112.221 82.6379 113.683V125.33C82.6379 126.792 83.5973 127.978 84.7808 127.978H97.6379C98.8214 127.978 99.7808 126.792 99.7808 125.33V113.683C99.7808 112.221 98.8214 111.036 97.6379 111.036Z" fill="url(#paint1_linear_2_31467)"/>
<g id="Mask group_2">
<mask id="mask1_2_31467" style="mask-type:alpha" maskUnits="userSpaceOnUse" x="82" y="111" width="18" height="17">
<g id="Group_4">
<path id="Vector_13" d="M97.6379 111.036H84.7808C83.5973 111.036 82.6379 112.221 82.6379 113.683V125.33C82.6379 126.792 83.5973 127.978 84.7808 127.978H97.6379C98.8214 127.978 99.7808 126.792 99.7808 125.33V113.683C99.7808 112.221 98.8214 111.036 97.6379 111.036Z" fill="#FEC700"/>
</g>
</mask>
<g mask="url(#mask1_2_31467)">
<g id="Group_5" filter="url(#filter1_f_2_31467)">
<path id="Vector_14" d="M84.5405 132.149L100.012 129.29L97.3548 107.299L81.8662 110.158L84.5405 132.149Z" fill="#FFBE00"/>
<path id="Vector_15" d="M84.5398 132.156L100.011 129.3L97.3503 107.309L81.8792 110.165L84.5398 132.156Z" fill="url(#paint2_linear_2_31467)"/>
</g>
</g>
</g>
<g id="Mask group_3">
<mask id="mask2_2_31467" style="mask-type:luminance" maskUnits="userSpaceOnUse" x="85" y="114" width="13" height="11">
<g id="Group_6">
<path id="Vector_16" d="M96.5664 114.742H85.8521C85.497 114.742 85.2092 115.098 85.2092 115.536V123.478C85.2092 123.916 85.497 124.272 85.8521 124.272H96.5664C96.9214 124.272 97.2092 123.916 97.2092 123.478V115.536C97.2092 115.098 96.9214 114.742 96.5664 114.742Z" fill="white"/>
</g>
</mask>
<g mask="url(#mask2_2_31467)">
<path id="Vector_17" d="M96.5664 114.742H85.8521C85.497 114.742 85.2092 115.098 85.2092 115.536V123.478C85.2092 123.916 85.497 124.272 85.8521 124.272H96.5664C96.9214 124.272 97.2092 123.916 97.2092 123.478V115.536C97.2092 115.098 96.9214 114.742 96.5664 114.742Z" stroke="white" stroke-width="3.51084"/>
</g>
</g>
</g>
</g>
<g id="Sheets icon" opacity="0.5">
<g id="Frame 2147230988">
<path id="Vector_18" d="M80.9421 96.0802C80.9421 95.0416 80.9421 94.5223 81.1054 94.1142C81.2195 93.8208 81.391 93.5543 81.6094 93.3311C81.8278 93.1079 82.0885 92.9326 82.3755 92.816C82.7746 92.649 83.2826 92.649 84.2987 92.649H91.1932C92.2092 92.649 92.7173 92.649 93.1164 92.816C93.4034 92.9326 93.6641 93.1079 93.8825 93.3311C94.1009 93.5543 94.2724 93.8208 94.3865 94.1142C94.5497 94.5223 94.5497 95.0416 94.5497 96.0802V100.346C94.5497 101.385 94.5497 101.904 94.3865 102.312C94.2724 102.605 94.1009 102.872 93.8825 103.095C93.6641 103.318 93.4034 103.494 93.1164 103.61C92.7173 103.777 92.2092 103.777 91.1932 103.777H84.2987C83.2826 103.777 82.7746 103.777 82.3755 103.61C82.0885 103.494 81.8278 103.318 81.6094 103.095C81.391 102.872 81.2195 102.605 81.1054 102.312C80.9421 101.904 80.9421 101.385 80.9421 100.346V96.0802Z" fill="#009954"/>
<g id="Mask group_4">
<mask id="mask3_2_31467" style="mask-type:alpha" maskUnits="userSpaceOnUse" x="82" y="90" width="19" height="16">
<g id="Group_7">
<path id="Vector_19" d="M98.6324 90.7944H85.0248C83.7722 90.7944 82.7568 91.8323 82.7568 93.1127V103.313C82.7568 104.594 83.7722 105.632 85.0248 105.632H98.6324C99.8849 105.632 100.9 104.594 100.9 103.313V93.1127C100.9 91.8323 99.8849 90.7944 98.6324 90.7944Z" fill="#0EBC5F"/>
</g>
</mask>
<g mask="url(#mask3_2_31467)">
<g id="Group_8">
<path id="Vector_20" d="M82.7568 90.7944H100.9V105.632H82.7568V90.7944Z" fill="#0EBC5F"/>
<g id="Group_9" filter="url(#filter2_f_2_31467)">
<path id="Vector_21" d="M94.3678 104.129H83.8446C82.2413 104.129 80.9417 102.801 80.9417 101.162V95.2732C80.9417 93.6343 82.2413 92.3057 83.8446 92.3057H94.3678C95.9711 92.3057 97.2708 93.6343 97.2708 95.2732V101.162C97.2708 102.801 95.9711 104.129 94.3678 104.129Z" fill="url(#paint3_linear_2_31467)"/>
</g>
</g>
</g>
</g>
<path id="Vector_22" d="M88.8801 101.227H98.4055M96.5911 103.082V95.6628" stroke="white" stroke-width="1.2519" stroke-linecap="round"/>
</g>
</g>
<g id="Docs icon">
<g id="docs_2026-24px 2">
<g id="Mask group_5">
<mask id="mask4_2_31467" style="mask-type:alpha" maskUnits="userSpaceOnUse" x="84" y="67" width="15" height="20">
<g id="Group_10">
<path id="Vector_23" d="M95.2625 86.5H87.7375C86.7575 86.5 86.2675 86.5 85.8825 86.3425C85.6057 86.2325 85.3542 86.0671 85.1436 85.8564C84.9329 85.6458 84.7675 85.3943 84.6575 85.1175C84.5 84.7325 84.5 84.2425 84.5 83.2625V70.4875C84.5 69.5075 84.5 69.0175 84.6575 68.6325C84.7675 68.3557 84.9329 68.1042 85.1436 67.8936C85.3542 67.6829 85.6057 67.5175 85.8825 67.4075C86.2675 67.25 86.7575 67.25 87.7375 67.25H91.9375L97.9313 73.2438C98.1063 73.4187 98.2025 73.515 98.2725 73.62C98.3775 73.7717 98.4446 73.935 98.4737 74.11C98.5 74.2325 98.5 74.3637 98.5 74.6175V83.2625C98.5 84.2425 98.5 84.7325 98.3425 85.1175C98.2325 85.3943 98.0671 85.6458 97.8564 85.8564C97.6458 86.0671 97.3943 86.2325 97.1175 86.3425C96.7238 86.5 96.2338 86.5 95.2538 86.5" fill="#3186FF"/>
</g>
</mask>
<g mask="url(#mask4_2_31467)">
<g id="Group_11">
<path id="Vector_24" d="M98.5 86.5H84.5V67.25H91.9375L98.5 73.8125V86.5Z" fill="#3186FF"/>
<g id="Group_12" filter="url(#filter3_f_2_31467)">
<path id="Vector_25" d="M85.7075 87.375H97.3013V68.5625H85.7075V87.375Z" fill="url(#paint4_linear_2_31467)"/>
</g>
</g>
</g>
</g>
<path id="Vector_26" d="M97.9575 73.27C97.6775 73.0542 97.3479 72.9433 96.9688 72.9375H93.3375C92.9662 72.9375 92.6101 72.79 92.3476 72.5274C92.085 72.2649 91.9375 71.9088 91.9375 71.5375V67.25L97.9575 73.27Z" fill="#76BBFF"/>
<path id="Vector_27" d="M94.3438 78.8438H88.6562C88.2938 78.8438 88 79.1376 88 79.5C88 79.8624 88.2938 80.1562 88.6562 80.1562H94.3438C94.7062 80.1562 95 79.8624 95 79.5C95 79.1376 94.7062 78.8438 94.3438 78.8438Z" fill="white"/>
<path id="Vector_28" d="M92.5938 82.02H88.6562C88.2938 82.02 88 82.3138 88 82.6763C88 83.0387 88.2938 83.3325 88.6562 83.3325H92.5938C92.9562 83.3325 93.25 83.0387 93.25 82.6763C93.25 82.3138 92.9562 82.02 92.5938 82.02Z" fill="white"/>
</g>
</g>
<g id="Drive icon">
<g id="Group 2147231055">
<g id="Mask group_6">
<mask id="mask5_2_31467" style="mask-type:alpha" maskUnits="userSpaceOnUse" x="11" y="11" width="35" height="32">
<g id="Group_13">
<path id="Vector_29" d="M21.9192 15.503C22.5874 14.3608 23.547 13.4125 24.7018 12.7533C25.8566 12.0941 27.166 11.7471 28.4989 11.7471C29.8318 11.7471 31.1412 12.0941 32.296 12.7533C33.4508 13.4125 34.4104 14.3608 35.0786 15.503L44.0916 30.9472C44.7608 32.092 45.1137 33.3911 45.115 34.7139C45.1163 36.0367 44.7658 37.3365 44.0988 38.4825C43.4319 39.6285 42.472 40.5804 41.3156 41.2422C40.1593 41.9041 38.8474 42.2527 37.5119 42.2529H19.4859C18.1504 42.2527 16.8385 41.9041 15.6822 41.2422C14.5259 40.5804 13.5659 39.6285 12.899 38.4825C12.232 37.3365 11.8815 36.0367 11.8828 34.7139C11.8841 33.3911 12.2371 32.092 12.9062 30.9472L21.9192 15.503Z" fill="#B43333"/>
</g>
</mask>
<g mask="url(#mask5_2_31467)">
<g id="Group_14">
<path id="Vector_30" d="M50.6891 42.2528H32.3109L28.5007 35.7199L37.6899 19.9586L50.6891 42.2528Z" fill="url(#paint5_linear_2_31467)"/>
<path id="Vector_31" d="M6.31177 42.2528L19.311 19.9586L15.5009 26.4915H23.1051L32.2943 42.2528H6.31177Z" fill="url(#paint6_linear_2_31467)"/>
<path id="Vector_32" d="M28.5005 4.1815L37.6896 19.9428L33.8955 26.4757H15.5012L28.5005 4.1815Z" fill="url(#paint7_linear_2_31467)"/>
</g>
</g>
</g>
</g>
</g>
</g>
<defs>
<filter id="filter0_f_2_31467" x="80.5418" y="128.635" width="12.5833" height="12.5835" filterUnits="userSpaceOnUse" color-interpolation-filters="sRGB">
<feFlood flood-opacity="0" result="BackgroundImageFix"/>
<feBlend mode="normal" in="SourceGraphic" in2="BackgroundImageFix" result="shape"/>
<feGaussianBlur stdDeviation="0.989583" result="effect1_foregroundBlur_2_31467"/>
</filter>
<filter id="filter1_f_2_31467" x="80.1108" y="105.543" width="21.6566" height="28.3681" filterUnits="userSpaceOnUse" color-interpolation-filters="sRGB">
<feFlood flood-opacity="0" result="BackgroundImageFix"/>
<feBlend mode="normal" in="SourceGraphic" in2="BackgroundImageFix" result="shape"/>
<feGaussianBlur stdDeviation="0.877709" result="effect1_foregroundBlur_2_31467"/>
</filter>
<filter id="filter2_f_2_31467" x="79.6898" y="91.0538" width="18.8329" height="14.3273" filterUnits="userSpaceOnUse" color-interpolation-filters="sRGB">
<feFlood flood-opacity="0" result="BackgroundImageFix"/>
<feBlend mode="normal" in="SourceGraphic" in2="BackgroundImageFix" result="shape"/>
<feGaussianBlur stdDeviation="0.62595" result="effect1_foregroundBlur_2_31467"/>
</filter>
<filter id="filter3_f_2_31467" x="84.395" y="67.25" width="14.2188" height="21.4375" filterUnits="userSpaceOnUse" color-interpolation-filters="sRGB">
<feFlood flood-opacity="0" result="BackgroundImageFix"/>
<feBlend mode="normal" in="SourceGraphic" in2="BackgroundImageFix" result="shape"/>
<feGaussianBlur stdDeviation="0.65625" result="effect1_foregroundBlur_2_31467"/>
</filter>
<linearGradient id="paint0_linear_2_31467" x1="89.9325" y1="109.882" x2="100.71" y2="126.242" gradientUnits="userSpaceOnUse">
<stop offset="0.2" stop-color="#FFDB0F"/>
<stop offset="0.67" stop-color="#FFBE00"/>
<stop offset="0.91" stop-color="#FFB5E8"/>
</linearGradient>
<linearGradient id="paint1_linear_2_31467" x1="91.2094" y1="111.036" x2="91.2094" y2="127.978" gradientUnits="userSpaceOnUse">
<stop stop-color="#FFBE00"/>
<stop offset="1" stop-color="#FEC700"/>
</linearGradient>
<linearGradient id="paint2_linear_2_31467" x1="92.5545" y1="129.06" x2="88.5958" y2="110.439" gradientUnits="userSpaceOnUse">
<stop offset="0.07" stop-color="#FFF549"/>
<stop offset="0.78" stop-color="#FFBE00" stop-opacity="0"/>
</linearGradient>
<linearGradient id="paint3_linear_2_31467" x1="94.8033" y1="99.1124" x2="83.2912" y2="99.1124" gradientUnits="userSpaceOnUse">
<stop stop-color="#0EBC5F"/>
<stop offset="0.95" stop-color="#78C9FF"/>
</linearGradient>
<linearGradient id="paint4_linear_2_31467" x1="91.5" y1="72.8588" x2="86.9763" y2="85.1175" gradientUnits="userSpaceOnUse">
<stop offset="0.33" stop-color="#3186FF"/>
<stop offset="1" stop-color="#A9A8FF"/>
</linearGradient>
<linearGradient id="paint5_linear_2_31467" x1="48.0316" y1="40.9843" x2="30.0179" y2="30.0496" gradientUnits="userSpaceOnUse">
<stop offset="0.09" stop-color="#FFE921"/>
<stop offset="1" stop-color="#FEC700"/>
</linearGradient>
<linearGradient id="paint6_linear_2_31467" x1="32.1822" y1="44.1556" x2="12.4971" y2="32.128" gradientUnits="userSpaceOnUse">
<stop offset="0.15" stop-color="#A9A8FF"/>
<stop offset="0.33" stop-color="#6D97FF"/>
<stop offset="0.48" stop-color="#3186FF"/>
</linearGradient>
<linearGradient id="paint7_linear_2_31467" x1="35.0801" y1="15.6616" x2="15.1061" y2="25.0842" gradientUnits="userSpaceOnUse">
<stop offset="0.55" stop-color="#0EBC5F"/>
<stop offset="0.85" stop-color="#78C9FF"/>
</linearGradient>
<clipPath id="clip0_2_31467">
<rect width="320" height="160" fill="white"/>
</clipPath>
<clipPath id="clip1_2_31467">
<rect width="122" height="102" fill="white" transform="translate(145 64)"/>
</clipPath>
</defs>
</svg>
